Coordinates
version=1
nRows=10
nColumns=63
inDegrees=yes

Units are S.I. units (second, meters, Newtons, ...)
If the header above contains a line with 'inDegrees', this indicates whether rotational values are in degrees (yes) or radians (no).

endheader
time	pelvis_tilt	pelvis_list	pelvis_rotation	pelvis_tx	pelvis_ty	pelvis_tz	hip_flexion_r	hip_adduction_r	hip_rotation_r	knee_angle_r	knee_angle_r_beta	ankle_angle_r	subtalar_angle_r	mtp_angle_r	hip_flexion_l	hip_adduction_l	hip_rotation_l	knee_angle_l	knee_angle_l_beta	ankle_angle_l	subtalar_angle_l	mtp_angle_l	L5_S1_Flex_Ext	L5_S1_Lat_Bending	L5_S1_axial_rotation	L4_L5_Flex_Ext	L4_L5_Lat_Bending	L4_L5_axial_rotation	L3_L4_Flex_Ext	L3_L4_Lat_Bending	L3_L4_axial_rotation	L2_L3_Flex_Ext	L2_L3_Lat_Bending	L2_L3_axial_rotation	L1_L2_Flex_Ext	L1_L2_Lat_Bending	L1_L2_axial_rotation	L1_T12_Flex_Ext	L1_T12_Lat_Bending	L1_T12_axial_rotation	Abs_r3	Abs_r2	Abs_r1	Abs_t1	Abs_t2	neck_flexion	neck_bending	neck_rotation	arm_flex_r	arm_add_r	arm_rot_r	elbow_flex_r	pro_sup_r	wrist_flex_r	wrist_dev_r	arm_flex_l	arm_add_l	arm_rot_l	elbow_flex_l	pro_sup_l	wrist_flex_l	wrist_dev_l
      1.74576271	     -5.15868233	     -3.04754235	     88.44647174	      0.25793993	      0.83487623	      0.71742782	      2.96053840	     -1.92110373	      2.55783012	      4.95782354	      0.08653034	     21.34265386	     -1.77965699	      0.00000000	      4.95365413	      1.83122392	     -6.95997303	      7.32579102	      0.12785917	     23.25962489	      8.79226578	      0.00000000	      0.19114865	     -0.29187001	      2.21401091	      0.35498216	     -0.38818711	      2.35238659	      0.31403811	     -0.70965274	      2.35238659	      0.21846379	     -0.70965274	      1.93725955	      0.17750064	     -0.59518133	      1.79888386	      0.10922234	     -0.45210665	      1.66050818	      1.36535568	     -3.30169193	     12.31366447	      0.00000000	      0.00000000	     27.67881600	     -1.19888874	    -14.48987432	     12.78456885	    -20.86885483	      7.21707613	    140.38354091	     88.36552987	    -24.78528440	     -2.43398831	     23.62294363	    -16.33112606	     22.54310162	    133.00125843	     74.14451375	     -5.82678331	     -7.98245794
      1.76271186	     -4.99076542	     -2.93425855	     88.45977373	      0.25749899	      0.83521230	      0.71737373	      2.95184034	     -1.78414111	      2.55366956	      5.12367087	      0.08942493	     21.39773537	     -1.72559704	      0.00000000	      4.80526914	      1.68871029	     -6.93574557	      7.29587687	      0.12733707	     23.31691395	      8.80153169	      0.00000000	      0.17050384	     -0.26432425	      2.27205254	      0.31664269	     -0.35155126	      2.41405583	      0.28012076	     -0.64267799	      2.41405583	      0.19486884	     -0.64267799	      1.98804597	      0.15832987	     -0.53901002	      1.84604269	      0.09742590	     -0.40943827	      1.70403941	      1.21789189	     -2.99008881	     12.63647462	      0.00000000	      0.00000000	     27.62923324	     -0.86967014	    -14.06627498	     14.75931668	    -21.36170821	      7.01979015	    142.69784552	     88.78112419	    -25.15578990	     -2.94235057	     25.81310493	    -15.83139855	     22.73723059	    133.55176481	     74.50718278	     -6.30754290	     -7.11033328
      1.77966102	     -4.87354211	     -2.85441738	     88.25642121	      0.25752758	      0.83530854	      0.71713395	      2.98761643	     -1.71675172	      1.89129908	      5.24466845	      0.09153673	     21.84399967	     -0.31056629	      0.00000000	      4.66008415	      1.55827172	     -7.49848239	      7.20739982	      0.12579286	     23.59958076	      9.20629985	      0.00000000	      0.16631069	     -0.24940444	      2.25864312	      0.30885559	     -0.33170791	      2.39980832	      0.27323184	     -0.60640196	      2.39980832	      0.19007649	     -0.60640196	      1.97631273	      0.15443611	     -0.50858553	      1.83514754	      0.09502993	     -0.38632748	      1.69398234	      1.18794064	     -2.82131291	     12.56189546	      0.00000000	      0.00000000	     27.57414417	     -0.07364516	    -13.29774362	     16.95835477	    -21.49356509	      8.72881241	    144.50061182	     88.95872439	    -29.40505414	     -3.13585746	     27.59951474	    -15.44418128	     23.55283381	    136.22605259	     82.54343345	    -17.91138162	      0.85788241
      1.79661017	     -4.70488997	     -2.77388533	     88.33598896	      0.25699901	      0.83535557	      0.71725374	      2.99046035	     -1.58427332	      1.46984097	      5.32445237	      0.09292922	     22.17040160	      0.33658507	      0.00000000	      4.62993067	      1.39133521	     -7.87323616	      7.22065279	      0.12602417	     23.94358352	      9.70716304	      0.00000000	      0.16095820	     -0.22271582	      2.16714819	      0.29891547	     -0.29621204	      2.30259495	      0.26443823	     -0.54151125	      2.30259495	      0.18395913	     -0.54151125	      1.89625466	      0.14946578	     -0.45416210	      1.76080790	      0.09197152	     -0.34498681	      1.62536114	      1.14970832	     -2.51940590	     12.05302807	      0.00000000	      0.00000000	     27.52191508	      0.55950519	    -12.18656485	     18.62345005	    -21.21739175	      8.76917347	    146.30694741	     89.11324613	    -27.79526700	      0.56999790	     29.15316483	    -14.96898450	     23.85892401	    137.04263968	     84.71573921	    -21.09505060	      1.36130864
      1.81355932	     -4.60952363	     -2.64275822	     88.44943307	      0.25662564	      0.83547218	      0.71736394	      2.92656151	     -1.54278024	      0.58944182	      5.39352716	      0.09413481	     22.63517472	      1.62072589	      0.00000000	      4.53859310	      1.28174055	     -8.47013340	      7.20857832	      0.12581343	     24.29060817	     10.53034742	      0.00000000	      0.14458450	     -0.21218571	      2.08575793	      0.26850788	     -0.28220700	      2.21611780	      0.23753788	     -0.51590834	      2.21611780	      0.16524563	     -0.51590834	      1.82503819	      0.13426117	     -0.43268910	      1.69467832	      0.08261558	     -0.32867567	      1.56431845	      1.03275263	     -2.40028720	     11.60035988	      0.00000000	      0.00000000	     27.45670189	      0.98872248	    -11.71390527	     19.55479450	    -20.48692855	      7.32248484	    147.95081772	     89.19123988	    -21.90671796	      5.23072531	     30.79298430	    -14.70528766	     25.40535737	    137.33956322	     86.54841531	    -26.37301132	     -1.99624659
      1.83050847	     -4.55807773	     -2.59426404	     88.45627256	      0.25686895	      0.83542906	      0.71747206	      2.93225436	     -1.46252979	      0.62437408	      5.42210292	      0.09463355	     22.83740288	      1.68174972	      0.00000000	      4.50112816	      1.21808976	     -8.53189456	      7.14740868	      0.12474581	     24.52995250	     10.52610410	      0.00000000	      0.14016918	     -0.22039545	      1.99725343	      0.26030819	     -0.29312595	      2.12208177	      0.23028395	     -0.53586950	      2.12208177	      0.16019936	     -0.53586950	      1.74759675	      0.13016110	     -0.44943041	      1.62276841	      0.08009267	     -0.34139256	      1.49794008	      1.00121445	     -2.49315744	     11.10812442	      0.00000000	      0.00000000	     27.38066709	      1.38112156	    -11.84902233	     20.46289155	    -20.06072923	      8.26569092	    148.83594419	     89.21038966	    -21.27744879	      5.23807530	     31.85041721	    -14.50374180	     25.59757265	    138.20305084	     87.33432072	    -26.39579390	     -2.79756795
      1.84745763	     -4.53884362	     -2.42681056	     88.92008827	      0.25604255	      0.83597192	      0.71795103	      2.77444415	     -1.50966500	     -0.48899483	      5.50167386	      0.09602232	     23.01815406	      2.55463068	      0.00000000	      4.48230413	      1.19486228	     -9.08645222	      7.28346096	      0.12712037	     24.67577220	     11.65056539	      0.00000000	      0.11326625	     -0.20758582	      1.77612596	      0.21034676	     -0.27608914	      1.88713383	      0.18608513	     -0.50472417	      1.88713383	      0.12945200	     -0.50472417	      1.55411021	      0.10517904	     -0.42330901	      1.44310234	      0.06472034	     -0.32155044	      1.33209447	      0.80904952	     -2.34825234	      9.87827975	      0.00000000	      0.00000000	     27.22168669	      2.16374400	    -10.12818990	     21.42533776	    -19.18084264	      8.47217098	    149.35883601	     89.21054632	    -16.94655284	      6.08145316	     33.35152051	    -14.71168713	     28.76931577	    137.62039545	     88.04404763	    -35.80448087	    -13.87237071
      1.86440678	     -4.66058380	     -2.33144885	     89.10705707	      0.25611382	      0.83621131	      0.71806896	      2.67094912	     -1.63132919	     -0.60508917	      5.56704919	      0.09716334	     23.03924902	      2.43564491	      0.00000000	      4.41482841	      1.32327859	     -9.08614233	      7.27700344	      0.12700767	     24.66093023	     11.77011539	      0.00000000	      0.09409182	     -0.22409179	      1.61339949	      0.17473792	     -0.29804208	      1.71423696	      0.15458345	     -0.54485677	      1.71423696	      0.10753754	     -0.54485677	      1.41172456	      0.08737366	     -0.45696797	      1.31088709	      0.05376407	     -0.34711818	      1.21004962	      0.67208845	     -2.53497113	      8.97324396	      0.00000000	      0.00000000	     27.15760908	      2.66199243	     -9.15345348	     22.36741043	    -18.50574312	     10.04042189	    149.50624791	     89.19331931	    -15.88644512	      4.01506705	     33.90087960	    -14.84517247	     29.21525985	    138.58707596	     88.54381456	    -36.19818264	    -15.40332737
      1.88135593	     -4.66292143	     -2.27838272	     89.39786415	      0.25573927	      0.83654485	      0.71806316	      2.56051124	     -1.65058590	     -0.79371155	      5.60409073	      0.09780983	     22.79504309	      2.12319377	      0.00000000	      4.40008806	      1.34287919	     -9.02425441	      7.32404424	      0.12782869	     24.64064038	     12.00063413	      0.00000000	      0.08427038	     -0.22576193	      1.50947158	      0.15649852	     -0.30026336	      1.60381355	      0.13844781	     -0.54891755	      1.60381355	      0.09631262	     -0.54891755	      1.32078763	      0.07825347	     -0.46037372	      1.22644566	      0.04815209	     -0.34970523	      1.13210368	      0.60193489	     -2.55386408	      8.39522808	      0.00000000	      0.00000000	     27.08954825	      3.43404685	     -8.33930361	     23.17570780	    -18.00146938	     11.13522861	    149.54295701	     89.17496601	    -15.29269218	      2.18415877	     34.57602948	    -14.62291150	     30.13112646	    138.73499839	     88.70315820	    -36.86468706	    -17.42178323
      1.89830508	     -4.64921677	     -2.27879851	     89.49650817	      0.25585590	      0.83680640	      0.71778273	      2.52554578	     -1.63378101	     -0.87763185	      5.68050042	      0.09914344	     22.55952744	      1.93620596	      0.00000000	      4.37848992	      1.32709474	     -9.03657802	      7.32430475	      0.12783323	     24.56097241	     12.04660922	      0.00000000	      0.08217888	     -0.23217554	      1.52546344	      0.15261440	     -0.30879347	      1.62080491	      0.13501168	     -0.56451161	      1.62080491	      0.09392224	     -0.56451161	      1.33478051	      0.07631131	     -0.47345236	      1.23943905	      0.04695701	     -0.35963991	      1.14409758	      0.58699553	     -2.62641616	      8.48417002	      0.00000000	      0.00000000	     27.04036515	      3.56371276	     -8.45468936	     23.89020943	    -17.83924620	     11.69543867	    149.48940124	     89.16851141	    -15.20782450	      2.37844854	     35.21328025	    -14.07292449	     30.79379273	    138.16446552	     88.73490455	    -36.72894669	    -17.58165080
